# xmcd
#
# Track frame offsets:
#	150
#	17227
#	31323
#	43965
#	61025
#	77650
#	91105
#	103822
#	113224
#
# Disc length: 1685 seconds
#
# Revision: 0
# Processed by: cddbd v1.4PL0 Copyright (c) Steve Scherf et al.
# Submitted via: MusicManager 7.0.3.0 
#
DISCID=6a069309
DTITLE=Dillard and Clark - The fantastic expedition of Dillard and Clark
DYEAR=1968
DGENRE=country
TTITLE0=Out on the side
TTITLE1=She darked the sun
TTITLE2=Don't come rollin'
TTITLE3=Train leaves here this mornin'
TTITLE4=With care from someone
TTITLE5=The radio song
TTITLE6=Git it on brother (git in line brother)
TTITLE7=In the plan
TTITLE8=Something's wrong
EXTD=
EXTT0=
EXTT1=
EXTT2=
EXTT3=
EXTT4=
EXTT5=
EXTT6=
EXTT7=
EXTT8=
PLAYORDER=
